<svg width="158" height="40" viewBox="0 0 158 40" fill="none" xmlns="http://www.w3.org/2000/svg">
<g clip-path="url(#clip0_10_16)">
<path d="M69.6774 39.6774H55.6989C46.5591 39.6774 39.2473 32.2581 39.2473 23.2258V16.4516C39.1398 7.41936 46.5591 0 55.6989 0H69.6774V7.52688H55.6989C50.7527 7.52688 46.7742 11.5054 46.7742 16.4516V23.2258C46.7742 28.172 50.7527 32.1505 55.6989 32.1505H69.6774V39.6774Z" fill="white"/>
<path d="M34.8387 39.6774L21.1828 0.860195V0.645142H21.0753H13.6559H13.5484L13.6559 0.860195L0 39.6774H7.52688L17.4194 11.5054L27.3118 39.6774H34.8387Z" fill="white"/>
<path d="M116.021 0.645142H112.258H108.495L98.4946 29.2473L88.3871 0.645142H84.7312H80.8602H77.2043V39.6774H84.7312V11.3978L94.6236 39.6774H94.7312H102.151H102.258L112.258 11.3978V39.6774H119.785V0.645142H116.021Z" fill="white"/>
<path d="M143.548 7.84951H157.527V0.322632H143.548C134.409 0.322632 127.097 7.74199 127.097 16.7742V23.5484C127.097 32.6882 134.516 40.0001 143.548 40.0001H157.527V32.4732H143.548C138.71 32.4732 134.839 28.7097 134.624 23.871H149.677V16.3441H134.624C134.839 11.7205 138.71 7.84951 143.548 7.84951Z" fill="white"/>
</g>
<defs>
<clipPath id="clip0_10_16">
<rect width="157.527" height="40" fill="white"/>
</clipPath>
</defs>
</svg>
